<svg width="36" height="55" viewBox="0 0 36 55" fill="none" xmlns="http://www.w3.org/2000/svg">
<g clip-path="url(#clip0_1_47)">
<path d="M23.738 20.5571L17.7969 17.1397L11.8558 13.696V27.4183L17.7969 23.9746L23.738 20.5571Z" fill="#8A0E13"/>
<path d="M11.8558 27.4183L17.7969 23.9746L23.738 20.5571V34.2531L17.7969 30.8357L11.8558 27.4183ZM0 34.2531L5.94106 30.8357L11.8558 27.4183V41.1143L5.94106 37.6968L0 34.2531Z" fill="#AE0917"/>
<path d="M23.738 47.9754L17.7969 44.5317L11.8558 41.1143V54.8103L17.7969 51.3928L23.738 47.9754ZM23.738 34.2531L17.7969 30.8357L11.8558 27.4183V41.1143L17.7969 37.6968L23.738 34.2531Z" fill="#E1001A"/>
<path d="M11.8558 41.1143L17.7969 37.6968L23.738 34.2531V47.9754L17.7969 44.5317L11.8558 41.1143Z" fill="#AE0917"/>
<path d="M11.8558 13.696L17.7969 10.2786L23.738 6.86115V20.5571L17.7969 17.1397L11.8558 13.696Z" fill="#650D0D"/>
<path d="M11.8558 27.4183L5.94107 23.9746L0 20.5571V34.2531L5.94107 30.8357L11.8558 27.4183Z" fill="#8A0E13"/>
<path d="M0 20.5571L5.94107 17.1397L11.8558 13.696V27.4183L5.94107 23.9746L0 20.5571Z" fill="#650D0D"/>
<path d="M35.5938 13.696L29.679 10.2786L23.738 6.86115V20.5571L29.679 17.1397L35.5938 13.696Z" fill="#8A0E13"/>
<path d="M23.738 6.86114L29.679 3.41743L35.5938 0V13.696L29.679 10.2786L23.738 6.86114Z" fill="#650D0D"/>
</g>
<defs>
<clipPath id="clip0_1_47">
<rect width="36" height="55" fill="white"/>
</clipPath>
</defs>
</svg>
